<svg width="414" height="655" viewBox="0 0 414 655" fill="none" xmlns="http://www.w3.org/2000/svg">
<path d="M118.829 650.02C104.714 647.425 90.7918 643.876 77.1577 639.396C129.82 650.111 273.976 457.873 361.074 328.004L364.92 333.682C390.015 371.416 407.325 405.577 410.713 430.58C440.021 623.46 238.074 672 118.829 650.02Z" fill="url(#paint0_linear_977_276)"/>
<path d="M361.074 327.545C274.067 457.871 129.819 650.11 77.1576 639.394C75.4175 639.394 73.7689 638.295 72.1204 637.746H71.3877L69.8307 637.196H68.8233L67.2663 636.555L65.6178 636.005L64.4272 635.456L61.0385 634.082L58.8404 633.166C57.6553 632.74 56.4935 632.251 55.3602 631.701L52.8874 630.602L51.422 628.953L38.6 622.634C19.7333 612.376 0.683449 597.448 0.408691 578.49V578.032V521.523C0.454564 520.975 0.454564 520.423 0.408691 519.875V469.686V442.21C0.500286 440.685 0.500286 439.156 0.408691 437.631V410.155V327.728V217.825C0.500286 216.3 0.500286 214.77 0.408691 213.245V185.77V135.489C0.500922 134.943 0.500922 134.386 0.408691 133.841V76.9657C0.408691 58.6486 17.6268 44.7275 35.3029 34.5615C40.798 31.6308 46.3848 28.8832 51.6052 26.3188L52.9789 25.6777L54.9938 24.7618H55.8181L57.0087 24.2123L60.9469 22.6554L62.8702 21.8311L66.3505 20.5489L67.9074 19.9078H68.9149L77.3408 16.977C130.003 5.07089 274.067 197.218 361.074 327.545Z" fill="url(#paint1_linear_977_276)"/>
<path d="M411.079 224.787C407.324 249.881 390.015 283.951 365.287 321.776C364.004 323.7 362.722 325.531 361.44 327.546C274.433 197.22 130.369 5.07263 77.5239 15.5134C91.1406 11.1038 105.03 7.5856 119.104 4.98104C238.074 -16.9996 440.021 31.5409 411.079 224.787Z" fill="url(#paint2_linear_977_276)"/>
<defs>
<linearGradient id="paint0_linear_977_276" x1="79.1726" y1="491.21" x2="405.859" y2="491.21" gradientUnits="userSpaceOnUse">
<stop offset="0.08" stop-color="#FFE012"/>
<stop offset="0.26" stop-color="#FFDF17"/>
<stop offset="0.48" stop-color="#FFDB27"/>
<stop offset="0.73" stop-color="#FFD541"/>
<stop offset="0.99" stop-color="#FFCC65"/>
<stop offset="1" stop-color="#FFCC66"/>
</linearGradient>
<linearGradient id="paint1_linear_977_276" x1="238.074" y1="29.7991" x2="84.8508" y2="483.057" gradientUnits="userSpaceOnUse">
<stop offset="0.12" stop-color="#BF3098"/>
<stop offset="0.43" stop-color="#D92D7F"/>
<stop offset="0.78" stop-color="#F02A69"/>
<stop offset="1" stop-color="#F92961"/>
</linearGradient>
<linearGradient id="paint2_linear_977_276" x1="77.2492" y1="163.791" x2="413.919" y2="163.791" gradientUnits="userSpaceOnUse">
<stop offset="0.1" stop-color="#3934EF"/>
<stop offset="0.79" stop-color="#4B20C6"/>
<stop offset="1" stop-color="#511AB9"/>
</linearGradient>
</defs>
</svg>
