<svg width="2544" height="211" viewBox="0 0 2544 211" fill="none" xmlns="http://www.w3.org/2000/svg">
<path d="M40.1851 208.514C35.6711 207.739 31.2149 206.659 26.8472 205.281C43.6926 208.501 88.9671 146.611 116.27 104.839L117.519 106.637C125.669 118.583 131.322 129.419 132.498 137.385C142.58 198.824 78.3204 215.077 40.1851 208.514Z" fill="url(#paint0_linear_978_281)"/>
<path d="M116.268 104.694C88.9963 146.611 43.6925 208.502 26.8471 205.282C26.2918 205.288 25.7616 204.944 25.2335 204.775L24.9996 204.777L24.5007 204.608L24.1792 204.612L23.68 204.413L23.1518 204.244L22.7698 204.073L21.6833 203.647L20.9784 203.363C20.5986 203.232 20.226 203.08 19.8623 202.909L19.069 202.568L18.5952 202.047L14.4796 200.079C8.4203 196.877 2.28486 192.185 2.12549 186.137L2.12376 185.99L1.91006 167.958C1.92262 167.783 1.92053 167.607 1.90382 167.432L1.71402 151.416L1.61011 142.648C1.63358 142.161 1.62779 141.673 1.5928 141.187L1.48889 132.419L1.17717 106.116L0.761549 71.045C0.78501 70.558 0.779227 70.07 0.744231 69.5837L0.640325 60.8159L0.450177 44.7709C0.477545 44.5965 0.475438 44.4186 0.443943 44.2449L0.228857 26.0956C0.159587 20.2504 5.60141 15.7429 11.2036 12.432C12.946 11.476 14.7184 10.5781 16.3746 9.74005L16.8106 9.53026L17.4501 9.23039L17.7131 9.22727L18.091 9.04741L19.3418 8.53568L19.9524 8.26537L21.0582 7.84305L21.5526 7.63258L21.8741 7.62877L24.5518 6.66168C41.3116 2.66316 88.0106 63.4343 116.268 104.694Z" fill="url(#paint1_linear_978_281)"/>
<path d="M131.837 71.7128C130.733 79.7349 125.339 90.6724 117.591 102.836C117.189 103.455 116.786 104.044 116.385 104.692C88.1275 63.4325 41.4285 2.66142 24.6046 6.19302C28.9332 4.73439 33.3521 3.55916 37.8334 2.6748C75.7147 -4.78933 140.341 9.93668 131.837 71.7128Z" fill="url(#paint2_linear_978_281)"/>
<path d="M247.55 150H234.2C231.65 150 230.45 148.8 230.45 146.25V47.85C230.45 45.3 231.65 44.1 234.2 44.1H247.55C250.1 44.1 251.3 45.3 251.3 47.85V87.6H308.15V47.85C308.15 45.3 309.35 44.1 311.9 44.1H325.4C327.95 44.1 329.15 45.3 329.15 47.85V146.25C329.15 148.8 327.95 150 325.4 150H311.9C309.35 150 308.15 148.8 308.15 146.25V106.05H251.3V146.25C251.3 148.8 250.1 150 247.55 150ZM433.877 150H351.827C349.277 150 348.077 148.8 348.077 146.25V47.85C348.077 45.3 349.277 44.1 351.827 44.1H433.877C436.427 44.1 437.627 45.3 437.627 47.85V60.3C437.627 62.85 436.427 64.05 433.877 64.05H368.777V87.15H410.927C413.477 87.15 414.677 88.35 414.677 90.9V101.85C414.677 104.4 413.477 105.6 410.927 105.6H368.777V130.05H433.877C436.427 130.05 437.627 131.25 437.627 133.8V146.25C437.627 148.8 436.427 150 433.877 150ZM563.067 150H547.917C545.817 150 544.317 149.1 543.417 147.15L536.367 131.7H475.767L468.567 147.15C467.517 149.1 466.017 150 464.067 150H448.917C446.067 150 444.867 148.2 446.067 145.65L493.767 46.8C494.667 45 496.167 44.1 498.117 44.1H514.017C515.967 44.1 517.467 45 518.367 46.8L565.917 145.65C567.117 148.2 565.917 150 563.067 150ZM506.217 65.85L483.567 114.6H528.567L506.217 65.85ZM623.416 150H605.116C603.166 150 601.666 149.1 600.766 147.15L556.366 48.45C555.166 45.9 556.366 44.1 559.216 44.1H573.616C575.566 44.1 577.066 45 577.966 46.95L614.416 128.1L650.416 46.95C651.316 45 652.816 44.1 654.766 44.1H669.166C672.016 44.1 673.216 45.9 672.016 48.45L627.766 147.15C626.866 149.1 625.366 150 623.416 150ZM768.447 150H686.397C683.847 150 682.647 148.8 682.647 146.25V47.85C682.647 45.3 683.847 44.1 686.397 44.1H768.447C770.997 44.1 772.197 45.3 772.197 47.85V60.3C772.197 62.85 770.997 64.05 768.447 64.05H703.347V87.15H745.497C748.047 87.15 749.247 88.35 749.247 90.9V101.85C749.247 104.4 748.047 105.6 745.497 105.6H703.347V130.05H768.447C770.997 130.05 772.197 131.25 772.197 133.8V146.25C772.197 148.8 770.997 150 768.447 150ZM804.337 150H790.987C788.437 150 787.237 148.8 787.237 146.25V47.85C787.237 45.3 788.437 44.1 790.987 44.1H804.487C806.437 44.1 807.937 44.85 809.137 46.35L867.337 118.65V47.85C867.337 45.3 868.537 44.1 871.087 44.1H884.437C886.987 44.1 888.187 45.3 888.187 47.85V146.25C888.187 148.8 886.987 150 884.437 150H870.937C868.987 150 867.487 149.25 866.287 147.75L808.087 75.9V146.25C808.087 148.8 806.887 150 804.337 150Z" fill="url(#paint3_linear_978_281)"/>
<path d="M1044.91 150H985.811C983.261 150 982.061 148.8 982.061 146.25V47.85C982.061 45.3 983.261 44.1 985.811 44.1H1043.86C1068.61 44.1 1079.11 53.55 1079.56 73.35V74.85C1079.56 84.9 1075.96 92.25 1068.61 96.75C1076.41 101.4 1080.31 109.2 1080.31 120V121.35C1080.31 141 1069.96 150 1044.91 150ZM1002.76 64.05V88.5H1044.31C1053.16 88.5 1057.96 85.8 1057.96 77.85V75.45C1057.96 66.9 1052.86 64.05 1042.51 64.05H1002.76ZM1002.76 105.3V130.2H1043.56C1053.76 130.2 1059.01 127.5 1059.01 119.1V116.7C1059.01 109.05 1054.36 105.3 1045.06 105.3H1002.76ZM1182.27 150H1100.22C1097.67 150 1096.47 148.8 1096.47 146.25V47.85C1096.47 45.3 1097.67 44.1 1100.22 44.1H1182.27C1184.82 44.1 1186.02 45.3 1186.02 47.85V60.3C1186.02 62.85 1184.82 64.05 1182.27 64.05H1117.17V87.15H1159.32C1161.87 87.15 1163.07 88.35 1163.07 90.9V101.85C1163.07 104.4 1161.87 105.6 1159.32 105.6H1117.17V130.05H1182.27C1184.82 130.05 1186.02 131.25 1186.02 133.8V146.25C1186.02 148.8 1184.82 150 1182.27 150ZM1247.41 150H1234.06C1231.51 150 1230.31 148.8 1230.31 146.25V64.2H1197.91C1195.36 64.2 1194.16 63 1194.16 60.45V47.85C1194.16 45.3 1195.36 44.1 1197.91 44.1H1283.56C1286.11 44.1 1287.31 45.3 1287.31 47.85V60.45C1287.31 63 1286.11 64.2 1283.56 64.2H1251.16V146.25C1251.16 148.8 1249.96 150 1247.41 150ZM1343.15 150H1328.45C1326.35 150 1324.85 148.95 1324.1 147L1291.25 48.3C1290.35 45.45 1291.4 44.1 1294.25 44.1H1308.5C1310.75 44.1 1312.1 45.15 1312.7 47.25L1335.65 122.55L1358 47.25C1358.6 45.15 1359.95 44.1 1362.2 44.1H1376.6C1378.85 44.1 1380.2 45.15 1380.8 47.25L1403 122.55L1426.1 47.25C1426.7 45.15 1428.05 44.1 1430.3 44.1H1444.55C1447.4 44.1 1448.45 45.45 1447.55 48.3L1414.7 147C1413.95 148.95 1412.6 150 1410.35 150H1395.5C1393.25 150 1391.9 148.95 1391.3 146.85L1369.4 73.2L1347.35 146.85C1346.75 148.95 1345.4 150 1343.15 150ZM1541.45 150H1459.4C1456.85 150 1455.65 148.8 1455.65 146.25V47.85C1455.65 45.3 1456.85 44.1 1459.4 44.1H1541.45C1544 44.1 1545.2 45.3 1545.2 47.85V60.3C1545.2 62.85 1544 64.05 1541.45 64.05H1476.35V87.15H1518.5C1521.05 87.15 1522.25 88.35 1522.25 90.9V101.85C1522.25 104.4 1521.05 105.6 1518.5 105.6H1476.35V130.05H1541.45C1544 130.05 1545.2 131.25 1545.2 133.8V146.25C1545.2 148.8 1544 150 1541.45 150ZM1646.04 150H1563.99C1561.44 150 1560.24 148.8 1560.24 146.25V47.85C1560.24 45.3 1561.44 44.1 1563.99 44.1H1646.04C1648.59 44.1 1649.79 45.3 1649.79 47.85V60.3C1649.79 62.85 1648.59 64.05 1646.04 64.05H1580.94V87.15H1623.09C1625.64 87.15 1626.84 88.35 1626.84 90.9V101.85C1626.84 104.4 1625.64 105.6 1623.09 105.6H1580.94V130.05H1646.04C1648.59 130.05 1649.79 131.25 1649.79 133.8V146.25C1649.79 148.8 1648.59 150 1646.04 150ZM1681.93 150H1668.58C1666.03 150 1664.83 148.8 1664.83 146.25V47.85C1664.83 45.3 1666.03 44.1 1668.58 44.1H1682.08C1684.03 44.1 1685.53 44.85 1686.73 46.35L1744.93 118.65V47.85C1744.93 45.3 1746.13 44.1 1748.68 44.1H1762.03C1764.58 44.1 1765.78 45.3 1765.78 47.85V146.25C1765.78 148.8 1764.58 150 1762.03 150H1748.53C1746.58 150 1745.08 149.25 1743.88 147.75L1685.68 75.9V146.25C1685.68 148.8 1684.48 150 1681.93 150Z" fill="url(#paint4_linear_978_281)"/>
<path d="M1926.7 150H1893.25C1869.1 150 1857.7 136.8 1857.7 113.55V80.7C1857.7 57.3 1869.1 44.1 1893.25 44.1H1926.7C1950.85 44.1 1962.25 57.3 1962.25 80.7V81.15C1962.25 83.7 1961.05 84.9 1958.5 84.9H1945.15C1942.6 84.9 1941.4 84 1941.4 82.35V79.95C1941.4 67.35 1937.5 64.05 1926.7 64.05H1893.25C1882.45 64.05 1878.55 67.35 1878.55 79.95V114.3C1878.55 126.75 1882.6 130.05 1893.25 130.05H1926.7C1937.35 130.05 1941.4 126.75 1941.4 114.3V111.45C1941.4 108.9 1942.6 107.7 1945.15 107.7H1958.5C1961.05 107.7 1962.25 108.6 1962.25 110.55V113.55C1962.25 136.8 1950.85 150 1926.7 150ZM2049.87 150H2011.32C1987.17 150 1975.77 136.8 1975.77 113.55V80.7C1975.77 57.3 1987.17 44.1 2011.32 44.1H2049.87C2074.02 44.1 2085.42 57.3 2085.42 80.7V113.55C2085.42 136.8 2074.02 150 2049.87 150ZM2011.32 130.05H2049.87C2060.52 130.05 2064.57 126.75 2064.57 114.3V79.95C2064.57 67.35 2060.82 64.05 2049.87 64.05H2011.32C2000.52 64.05 1996.62 67.35 1996.62 79.95V114.3C1996.62 126.75 2000.67 130.05 2011.32 130.05ZM2158.57 150H2140.27C2138.32 150 2136.82 149.1 2135.92 147.15L2091.52 48.45C2090.32 45.9 2091.52 44.1 2094.37 44.1H2108.77C2110.72 44.1 2112.22 45 2113.12 46.95L2149.57 128.1L2185.57 46.95C2186.47 45 2187.97 44.1 2189.92 44.1H2204.32C2207.17 44.1 2208.37 45.9 2207.17 48.45L2162.92 147.15C2162.02 149.1 2160.52 150 2158.57 150ZM2303.6 150H2221.55C2219 150 2217.8 148.8 2217.8 146.25V47.85C2217.8 45.3 2219 44.1 2221.55 44.1H2303.6C2306.15 44.1 2307.35 45.3 2307.35 47.85V60.3C2307.35 62.85 2306.15 64.05 2303.6 64.05H2238.5V87.15H2280.65C2283.2 87.15 2284.4 88.35 2284.4 90.9V101.85C2284.4 104.4 2283.2 105.6 2280.65 105.6H2238.5V130.05H2303.6C2306.15 130.05 2307.35 131.25 2307.35 133.8V146.25C2307.35 148.8 2306.15 150 2303.6 150ZM2423.04 82.35V84.6C2423.04 103.65 2416.74 115.5 2401.14 120.15L2418.99 145.5C2420.79 148.05 2419.59 150 2416.59 150H2400.99C2399.04 150 2397.54 149.25 2396.49 147.6L2380.14 122.25H2343.24V146.25C2343.24 148.8 2342.04 150 2339.49 150H2326.14C2323.59 150 2322.39 148.8 2322.39 146.25V47.85C2322.39 45.3 2323.59 44.1 2326.14 44.1H2380.59C2410.59 44.1 2423.04 56.4 2423.04 82.35ZM2402.04 84.45V82.5C2402.04 75 2400.39 70.05 2396.94 67.65C2393.49 65.25 2387.49 64.05 2378.94 64.05H2343.24V102.45H2378.94C2387.49 102.45 2393.34 101.25 2396.79 99C2400.24 96.6 2402.04 91.8 2402.04 84.45ZM2501.25 150H2471.7C2448.15 150 2437.35 139.65 2436.3 118.2C2436.15 115.65 2437.35 114.3 2439.9 114.3H2453.25C2455.5 114.3 2456.85 115.5 2457 118.05C2457.75 126.6 2461.95 130.05 2471.7 130.05H2501.1C2512.5 130.05 2516.55 127.05 2516.55 118.5C2516.55 110.25 2512.95 107.85 2502.6 107.1L2469.15 104.55C2457.45 103.65 2449.2 101.1 2444.25 96.75C2439.3 92.4 2436.9 85.2 2436.9 75.45C2436.9 54.45 2447.4 44.1 2472.75 44.1H2500.2C2523.6 44.1 2534.55 54.45 2535.6 75.9C2535.75 78.45 2534.55 79.8 2532 79.8H2518.5C2516.25 79.8 2514.9 78.6 2514.75 76.05C2514 67.5 2509.8 64.05 2500.2 64.05H2473.05C2461.5 64.05 2457.45 66.75 2457.45 75.6C2457.45 83.55 2461.05 85.95 2471.4 86.7L2504.85 89.25C2527.8 91.05 2537.25 99.3 2537.25 118.65C2537.25 139.65 2526.9 150 2501.25 150Z" fill="url(#paint5_linear_978_281)"/>
<defs>
<linearGradient id="paint0_linear_978_281" x1="26.9297" y1="157.986" x2="131.179" y2="156.751" gradientUnits="userSpaceOnUse">
<stop offset="0.08" stop-color="#FFE012"/>
<stop offset="0.26" stop-color="#FFDF17"/>
<stop offset="0.48" stop-color="#FFDB27"/>
<stop offset="0.73" stop-color="#FFD541"/>
<stop offset="0.99" stop-color="#FFCC65"/>
<stop offset="1" stop-color="#FFCC66"/>
</linearGradient>
<linearGradient id="paint1_linear_978_281" x1="75.8917" y1="10.1455" x2="28.7109" y2="155.364" gradientUnits="userSpaceOnUse">
<stop offset="0.12" stop-color="#BF3098"/>
<stop offset="0.43" stop-color="#D92D7F"/>
<stop offset="0.78" stop-color="#F02A69"/>
<stop offset="1" stop-color="#F92961"/>
</linearGradient>
<linearGradient id="paint2_linear_978_281" x1="25.0777" y1="53.5108" x2="132.512" y2="52.2376" gradientUnits="userSpaceOnUse">
<stop offset="0.1" stop-color="#3934EF"/>
<stop offset="0.79" stop-color="#4B20C6"/>
<stop offset="1" stop-color="#511AB9"/>
</linearGradient>
<linearGradient id="paint3_linear_978_281" x1="1382.5" y1="16" x2="1382.5" y2="196" gradientUnits="userSpaceOnUse">
<stop stop-color="#4725CF"/>
<stop offset="1" stop-color="#4725CF"/>
</linearGradient>
<linearGradient id="paint4_linear_978_281" x1="1382.5" y1="16" x2="1382.5" y2="196" gradientUnits="userSpaceOnUse">
<stop stop-color="#EA2B6F"/>
<stop offset="1" stop-color="#EA2B6F"/>
</linearGradient>
<linearGradient id="paint5_linear_978_281" x1="1382.5" y1="16" x2="1382.5" y2="196" gradientUnits="userSpaceOnUse">
<stop stop-color="#FFD541"/>
<stop offset="1" stop-color="#FFD541"/>
</linearGradient>
</defs>
</svg>
