<svg width="1448" height="655" viewBox="0 0 1448 655" fill="none" xmlns="http://www.w3.org/2000/svg">
<path d="M118.829 650.02C104.714 647.425 90.7918 643.876 77.1577 639.396C129.82 650.111 273.976 457.873 361.074 328.004L364.92 333.682C390.015 371.416 407.325 405.577 410.713 430.58C440.021 623.46 238.074 672 118.829 650.02Z" fill="url(#paint0_linear_954_272)"/>
<path d="M361.074 327.545C274.067 457.872 129.819 650.111 77.1576 639.395C75.4175 639.395 73.7689 638.296 72.1204 637.747H71.3877L69.8307 637.197H68.8233L67.2663 636.556L65.6178 636.006L64.4272 635.457L61.0385 634.083L58.8404 633.167C57.6553 632.741 56.4935 632.252 55.3602 631.702L52.8874 630.603L51.422 628.954L38.6 622.635C19.7333 612.377 0.683449 597.449 0.408691 578.491V578.033V521.524C0.454564 520.976 0.454564 520.424 0.408691 519.876V469.687V442.211C0.500286 440.686 0.500286 439.157 0.408691 437.632V410.156V327.729V217.826C0.500286 216.301 0.500286 214.771 0.408691 213.246V185.771V135.49C0.500922 134.944 0.500922 134.387 0.408691 133.842V76.9667C0.408691 58.6496 17.6268 44.7285 35.3029 34.5625C40.798 31.6318 46.3848 28.8842 51.6052 26.3198L52.9789 25.6787L54.9938 24.7628H55.8181L57.0087 24.2133L60.9469 22.6563L62.8702 21.8321L66.3505 20.5499L67.9074 19.9088H68.9149L77.3408 16.978C130.003 5.07187 274.067 197.219 361.074 327.545Z" fill="url(#paint1_linear_954_272)"/>
<path d="M411.079 224.787C407.324 249.881 390.015 283.951 365.287 321.776C364.004 323.7 362.722 325.531 361.44 327.546C274.433 197.22 130.369 5.07263 77.5239 15.5134C91.1406 11.1038 105.03 7.5856 119.104 4.98104C238.074 -16.9996 440.021 31.5409 411.079 224.787Z" fill="url(#paint2_linear_954_272)"/>
<path d="M633.55 209H620.2C617.65 209 616.45 207.8 616.45 205.25V106.85C616.45 104.3 617.65 103.1 620.2 103.1H633.55C636.1 103.1 637.3 104.3 637.3 106.85V146.6H694.15V106.85C694.15 104.3 695.35 103.1 697.9 103.1H711.4C713.95 103.1 715.15 104.3 715.15 106.85V205.25C715.15 207.8 713.95 209 711.4 209H697.9C695.35 209 694.15 207.8 694.15 205.25V165.05H637.3V205.25C637.3 207.8 636.1 209 633.55 209ZM819.877 209H737.827C735.277 209 734.077 207.8 734.077 205.25V106.85C734.077 104.3 735.277 103.1 737.827 103.1H819.877C822.427 103.1 823.627 104.3 823.627 106.85V119.3C823.627 121.85 822.427 123.05 819.877 123.05H754.777V146.15H796.927C799.477 146.15 800.677 147.35 800.677 149.9V160.85C800.677 163.4 799.477 164.6 796.927 164.6H754.777V189.05H819.877C822.427 189.05 823.627 190.25 823.627 192.8V205.25C823.627 207.8 822.427 209 819.877 209ZM949.067 209H933.917C931.817 209 930.317 208.1 929.417 206.15L922.367 190.7H861.767L854.567 206.15C853.517 208.1 852.017 209 850.067 209H834.917C832.067 209 830.867 207.2 832.067 204.65L879.767 105.8C880.667 104 882.167 103.1 884.117 103.1H900.017C901.967 103.1 903.467 104 904.367 105.8L951.917 204.65C953.117 207.2 951.917 209 949.067 209ZM892.217 124.85L869.567 173.6H914.567L892.217 124.85ZM1009.42 209H991.116C989.166 209 987.666 208.1 986.766 206.15L942.366 107.45C941.166 104.9 942.366 103.1 945.216 103.1H959.616C961.566 103.1 963.066 104 963.966 105.95L1000.42 187.1L1036.42 105.95C1037.32 104 1038.82 103.1 1040.77 103.1H1055.17C1058.02 103.1 1059.22 104.9 1058.02 107.45L1013.77 206.15C1012.87 208.1 1011.37 209 1009.42 209ZM1154.45 209H1072.4C1069.85 209 1068.65 207.8 1068.65 205.25V106.85C1068.65 104.3 1069.85 103.1 1072.4 103.1H1154.45C1157 103.1 1158.2 104.3 1158.2 106.85V119.3C1158.2 121.85 1157 123.05 1154.45 123.05H1089.35V146.15H1131.5C1134.05 146.15 1135.25 147.35 1135.25 149.9V160.85C1135.25 163.4 1134.05 164.6 1131.5 164.6H1089.35V189.05H1154.45C1157 189.05 1158.2 190.25 1158.2 192.8V205.25C1158.2 207.8 1157 209 1154.45 209ZM1190.34 209H1176.99C1174.44 209 1173.24 207.8 1173.24 205.25V106.85C1173.24 104.3 1174.44 103.1 1176.99 103.1H1190.49C1192.44 103.1 1193.94 103.85 1195.14 105.35L1253.34 177.65V106.85C1253.34 104.3 1254.54 103.1 1257.09 103.1H1270.44C1272.99 103.1 1274.19 104.3 1274.19 106.85V205.25C1274.19 207.8 1272.99 209 1270.44 209H1256.94C1254.99 209 1253.49 208.25 1252.29 206.75L1194.09 134.9V205.25C1194.09 207.8 1192.89 209 1190.34 209Z" fill="url(#paint3_linear_954_272)"/>
<path d="M679.3 389H620.2C617.65 389 616.45 387.8 616.45 385.25V286.85C616.45 284.3 617.65 283.1 620.2 283.1H678.25C703 283.1 713.5 292.55 713.95 312.35V313.85C713.95 323.9 710.35 331.25 703 335.75C710.8 340.4 714.7 348.2 714.7 359V360.35C714.7 380 704.35 389 679.3 389ZM637.15 303.05V327.5H678.7C687.55 327.5 692.35 324.8 692.35 316.85V314.45C692.35 305.9 687.25 303.05 676.9 303.05H637.15ZM637.15 344.3V369.2H677.95C688.15 369.2 693.4 366.5 693.4 358.1V355.7C693.4 348.05 688.75 344.3 679.45 344.3H637.15ZM816.654 389H734.604C732.054 389 730.854 387.8 730.854 385.25V286.85C730.854 284.3 732.054 283.1 734.604 283.1H816.654C819.204 283.1 820.404 284.3 820.404 286.85V299.3C820.404 301.85 819.204 303.05 816.654 303.05H751.554V326.15H793.704C796.254 326.15 797.454 327.35 797.454 329.9V340.85C797.454 343.4 796.254 344.6 793.704 344.6H751.554V369.05H816.654C819.204 369.05 820.404 370.25 820.404 372.8V385.25C820.404 387.8 819.204 389 816.654 389ZM881.794 389H868.444C865.894 389 864.694 387.8 864.694 385.25V303.2H832.294C829.744 303.2 828.544 302 828.544 299.45V286.85C828.544 284.3 829.744 283.1 832.294 283.1H917.944C920.494 283.1 921.694 284.3 921.694 286.85V299.45C921.694 302 920.494 303.2 917.944 303.2H885.544V385.25C885.544 387.8 884.344 389 881.794 389ZM977.535 389H962.835C960.735 389 959.235 387.95 958.485 386L925.635 287.3C924.735 284.45 925.785 283.1 928.635 283.1H942.885C945.135 283.1 946.485 284.15 947.085 286.25L970.035 361.55L992.385 286.25C992.985 284.15 994.335 283.1 996.585 283.1H1010.99C1013.24 283.1 1014.59 284.15 1015.19 286.25L1037.39 361.55L1060.49 286.25C1061.09 284.15 1062.44 283.1 1064.69 283.1H1078.94C1081.79 283.1 1082.84 284.45 1081.94 287.3L1049.09 386C1048.34 387.95 1046.99 389 1044.74 389H1029.89C1027.64 389 1026.29 387.95 1025.69 385.85L1003.79 312.2L981.735 385.85C981.135 387.95 979.785 389 977.535 389ZM1175.83 389H1093.78C1091.23 389 1090.03 387.8 1090.03 385.25V286.85C1090.03 284.3 1091.23 283.1 1093.78 283.1H1175.83C1178.38 283.1 1179.58 284.3 1179.58 286.85V299.3C1179.58 301.85 1178.38 303.05 1175.83 303.05H1110.73V326.15H1152.88C1155.43 326.15 1156.63 327.35 1156.63 329.9V340.85C1156.63 343.4 1155.43 344.6 1152.88 344.6H1110.73V369.05H1175.83C1178.38 369.05 1179.58 370.25 1179.58 372.8V385.25C1179.58 387.8 1178.38 389 1175.83 389ZM1280.42 389H1198.37C1195.82 389 1194.62 387.8 1194.62 385.25V286.85C1194.62 284.3 1195.82 283.1 1198.37 283.1H1280.42C1282.97 283.1 1284.17 284.3 1284.17 286.85V299.3C1284.17 301.85 1282.97 303.05 1280.42 303.05H1215.32V326.15H1257.47C1260.02 326.15 1261.22 327.35 1261.22 329.9V340.85C1261.22 343.4 1260.02 344.6 1257.47 344.6H1215.32V369.05H1280.42C1282.97 369.05 1284.17 370.25 1284.17 372.8V385.25C1284.17 387.8 1282.97 389 1280.42 389ZM1316.31 389H1302.96C1300.41 389 1299.21 387.8 1299.21 385.25V286.85C1299.21 284.3 1300.41 283.1 1302.96 283.1H1316.46C1318.41 283.1 1319.91 283.85 1321.11 285.35L1379.31 357.65V286.85C1379.31 284.3 1380.51 283.1 1383.06 283.1H1396.41C1398.96 283.1 1400.16 284.3 1400.16 286.85V385.25C1400.16 387.8 1398.96 389 1396.41 389H1382.91C1380.96 389 1379.46 388.25 1378.26 386.75L1320.06 314.9V385.25C1320.06 387.8 1318.86 389 1316.31 389Z" fill="url(#paint4_linear_954_272)"/>
<path d="M683.5 569H650.05C625.9 569 614.5 555.8 614.5 532.55V499.7C614.5 476.3 625.9 463.1 650.05 463.1H683.5C707.65 463.1 719.05 476.3 719.05 499.7V500.15C719.05 502.7 717.85 503.9 715.3 503.9H701.95C699.4 503.9 698.2 503 698.2 501.35V498.95C698.2 486.35 694.3 483.05 683.5 483.05H650.05C639.25 483.05 635.35 486.35 635.35 498.95V533.3C635.35 545.75 639.4 549.05 650.05 549.05H683.5C694.15 549.05 698.2 545.75 698.2 533.3V530.45C698.2 527.9 699.4 526.7 701.95 526.7H715.3C717.85 526.7 719.05 527.6 719.05 529.55V532.55C719.05 555.8 707.65 569 683.5 569ZM806.666 569H768.116C743.966 569 732.566 555.8 732.566 532.55V499.7C732.566 476.3 743.966 463.1 768.116 463.1H806.666C830.816 463.1 842.216 476.3 842.216 499.7V532.55C842.216 555.8 830.816 569 806.666 569ZM768.116 549.05H806.666C817.316 549.05 821.366 545.75 821.366 533.3V498.95C821.366 486.35 817.616 483.05 806.666 483.05H768.116C757.316 483.05 753.416 486.35 753.416 498.95V533.3C753.416 545.75 757.466 549.05 768.116 549.05ZM915.373 569H897.073C895.123 569 893.623 568.1 892.723 566.15L848.323 467.45C847.123 464.9 848.323 463.1 851.173 463.1H865.573C867.523 463.1 869.023 464 869.923 465.95L906.373 547.1L942.373 465.95C943.273 464 944.773 463.1 946.723 463.1H961.123C963.973 463.1 965.173 464.9 963.973 467.45L919.723 566.15C918.823 568.1 917.323 569 915.373 569ZM1060.4 569H978.354C975.804 569 974.604 567.8 974.604 565.25V466.85C974.604 464.3 975.804 463.1 978.354 463.1H1060.4C1062.95 463.1 1064.15 464.3 1064.15 466.85V479.3C1064.15 481.85 1062.95 483.05 1060.4 483.05H995.304V506.15H1037.45C1040 506.15 1041.2 507.35 1041.2 509.9V520.85C1041.2 523.4 1040 524.6 1037.45 524.6H995.304V549.05H1060.4C1062.95 549.05 1064.15 550.25 1064.15 552.8V565.25C1064.15 567.8 1062.95 569 1060.4 569ZM1179.84 501.35V503.6C1179.84 522.65 1173.54 534.5 1157.94 539.15L1175.79 564.5C1177.59 567.05 1176.39 569 1173.39 569H1157.79C1155.84 569 1154.34 568.25 1153.29 566.6L1136.94 541.25H1100.04V565.25C1100.04 567.8 1098.84 569 1096.29 569H1082.94C1080.39 569 1079.19 567.8 1079.19 565.25V466.85C1079.19 464.3 1080.39 463.1 1082.94 463.1H1137.39C1167.39 463.1 1179.84 475.4 1179.84 501.35ZM1158.84 503.45V501.5C1158.84 494 1157.19 489.05 1153.74 486.65C1150.29 484.25 1144.29 483.05 1135.74 483.05H1100.04V521.45H1135.74C1144.29 521.45 1150.14 520.25 1153.59 518C1157.04 515.6 1158.84 510.8 1158.84 503.45ZM1258.05 569H1228.5C1204.95 569 1194.15 558.65 1193.1 537.2C1192.95 534.65 1194.15 533.3 1196.7 533.3H1210.05C1212.3 533.3 1213.65 534.5 1213.8 537.05C1214.55 545.6 1218.75 549.05 1228.5 549.05H1257.9C1269.3 549.05 1273.35 546.05 1273.35 537.5C1273.35 529.25 1269.75 526.85 1259.4 526.1L1225.95 523.55C1214.25 522.65 1206 520.1 1201.05 515.75C1196.1 511.4 1193.7 504.2 1193.7 494.45C1193.7 473.45 1204.2 463.1 1229.55 463.1H1257C1280.4 463.1 1291.35 473.45 1292.4 494.9C1292.55 497.45 1291.35 498.8 1288.8 498.8H1275.3C1273.05 498.8 1271.7 497.6 1271.55 495.05C1270.8 486.5 1266.6 483.05 1257 483.05H1229.85C1218.3 483.05 1214.25 485.75 1214.25 494.6C1214.25 502.55 1217.85 504.95 1228.2 505.7L1261.65 508.25C1284.6 510.05 1294.05 518.3 1294.05 537.65C1294.05 558.65 1283.7 569 1258.05 569Z" fill="url(#paint5_linear_954_272)"/>
<defs>
<linearGradient id="paint0_linear_954_272" x1="79.1726" y1="491.21" x2="405.859" y2="491.21" gradientUnits="userSpaceOnUse">
<stop offset="0.08" stop-color="#FFE012"/>
<stop offset="0.26" stop-color="#FFDF17"/>
<stop offset="0.48" stop-color="#FFDB27"/>
<stop offset="0.73" stop-color="#FFD541"/>
<stop offset="0.99" stop-color="#FFCC65"/>
<stop offset="1" stop-color="#FFCC66"/>
</linearGradient>
<linearGradient id="paint1_linear_954_272" x1="238.074" y1="29.8" x2="84.8508" y2="483.058" gradientUnits="userSpaceOnUse">
<stop offset="0.12" stop-color="#BF3098"/>
<stop offset="0.43" stop-color="#D92D7F"/>
<stop offset="0.78" stop-color="#F02A69"/>
<stop offset="1" stop-color="#F92961"/>
</linearGradient>
<linearGradient id="paint2_linear_954_272" x1="77.2492" y1="163.791" x2="413.919" y2="163.791" gradientUnits="userSpaceOnUse">
<stop offset="0.1" stop-color="#3934EF"/>
<stop offset="0.79" stop-color="#4B20C6"/>
<stop offset="1" stop-color="#511AB9"/>
</linearGradient>
<linearGradient id="paint3_linear_954_272" x1="1027.5" y1="75" x2="1027.5" y2="615" gradientUnits="userSpaceOnUse">
<stop stop-color="#4725CF"/>
<stop offset="1" stop-color="#4725CF"/>
</linearGradient>
<linearGradient id="paint4_linear_954_272" x1="1027.5" y1="75" x2="1027.5" y2="615" gradientUnits="userSpaceOnUse">
<stop stop-color="#EA2B6F"/>
<stop offset="1" stop-color="#EA2B6F"/>
</linearGradient>
<linearGradient id="paint5_linear_954_272" x1="1027.5" y1="75" x2="1027.5" y2="615" gradientUnits="userSpaceOnUse">
<stop stop-color="#FFD541"/>
<stop offset="1" stop-color="#FFD541"/>
</linearGradient>
</defs>
</svg>
